<svg width="30" height="30" viewBox="0 0 30 30" fill="none" xmlns="http://www.w3.org/2000/svg">
<g clip-path="url(#clip0_110_308)">
<path d="M22 0H8C3.58172 0 0 3.58172 0 8V22C0 26.4183 3.58172 30 8 30H22C26.4183 30 30 26.4183 30 22V8C30 3.58172 26.4183 0 22 0Z" fill="#FACC15"/>
<path d="M22.3962 14.3662H23.3389C23.4339 14.3663 23.528 14.3466 23.6144 14.3084C23.7009 14.2703 23.7777 14.2147 23.8398 14.1454C23.9018 14.0762 23.9476 13.9948 23.974 13.9069C24.0004 13.819 24.0068 13.7266 23.9928 13.6361L23.3993 9.8221C23.3761 9.67124 23.2972 9.53345 23.1771 9.43385C23.0572 9.33426 22.9039 9.27949 22.7454 9.27954H22.2687C21.8559 9.27969 21.4489 9.37272 21.0802 9.55121C20.7114 9.72971 20.3912 9.98871 20.145 10.3075L16.9798 14.4071C16.9242 14.4778 16.8472 14.5299 16.7593 14.5562C16.6713 14.5825 16.5771 14.5816 16.4898 14.5537C16.4024 14.5257 16.3263 14.4721 16.2723 14.4004C16.2183 14.3287 16.1889 14.2425 16.1884 14.1539V9.91633C16.1882 9.74752 16.1184 9.5857 15.9943 9.46633C15.8703 9.34696 15.7021 9.27979 15.5267 9.27954H14.3506C13.9379 9.27961 13.5308 9.37261 13.1621 9.55111C12.7934 9.72961 12.4731 9.98865 12.227 10.3075L8.66608 14.923C8.54321 15.0826 8.38319 15.2121 8.19889 15.3014C8.01457 15.3906 7.81107 15.4371 7.60474 15.437H6.6611C6.56598 15.4371 6.472 15.4569 6.38555 15.4951C6.29911 15.5333 6.22224 15.5891 6.16018 15.6584C6.09813 15.7278 6.05235 15.8093 6.02596 15.8972C5.99958 15.9851 5.99321 16.0775 6.00729 16.168L6.60077 19.982C6.62445 20.1328 6.70357 20.2704 6.82373 20.3698C6.9439 20.4692 7.09712 20.5238 7.25557 20.5237H7.73136C8.14414 20.5237 8.55121 20.4307 8.91997 20.2522C9.28873 20.0737 9.60896 19.8146 9.85502 19.4957L13.0203 15.3961C13.0761 15.326 13.1532 15.2744 13.2409 15.2485C13.3286 15.2225 13.4226 15.2236 13.5096 15.2514C13.5967 15.2793 13.6726 15.3326 13.7267 15.4039C13.7808 15.4752 13.8105 15.561 13.8116 15.6493V19.8879C13.8116 20.0564 13.8812 20.2182 14.0051 20.3375C14.129 20.4567 14.2971 20.5237 14.4723 20.5237H15.6483C16.0614 20.5239 16.4686 20.4309 16.8376 20.2524C17.2065 20.0739 17.5269 19.8147 17.7731 19.4957L21.334 14.8802C21.4571 14.7207 21.6172 14.5911 21.8017 14.5018C21.9861 14.4126 22.1898 14.3661 22.3962 14.3662Z" fill="white"/>
</g>
<defs>
<clipPath id="clip0_110_308">
<rect width="30" height="30" fill="white"/>
</clipPath>
</defs>
</svg>
