<svg width="28" height="28" viewBox="0 0 28 28" fill="none" xmlns="http://www.w3.org/2000/svg">
<path d="M26.0455 13.8444C26.0455 20.3157 20.6739 25.5999 14 25.5999C7.32622 25.5999 1.95459 20.3157 1.95459 13.8444C1.95459 7.37304 7.32622 2.08883 14 2.08883C20.6739 2.08883 26.0455 7.37304 26.0455 13.8444Z" stroke="#4285F4" stroke-width="2"/>
<path d="M5.47467 22.1489L5.47465 22.1489C4.55287 21.2476 4.11442 19.5681 4.75529 17.1312C5.38475 14.7377 6.99539 11.9725 9.52446 9.49966C12.0529 7.02739 14.8854 5.44774 17.3453 4.82927L17.1342 3.98981L17.3453 4.82927C19.8543 4.19842 21.5952 4.63027 22.5255 5.53988C23.4473 6.44118 23.8857 8.12074 23.2449 10.5576C22.6154 12.9512 21.0047 15.7163 18.4757 18.1892C15.9472 20.6614 13.1147 22.2411 10.6548 22.8595L10.8908 23.7979L10.6548 22.8595C8.14583 23.4904 6.40494 23.0586 5.47467 22.1489Z" stroke="#4285F4" stroke-width="2"/>
<path d="M9.52422 18.1892L8.8251 18.9042L9.52422 18.1892C6.99515 15.7163 5.38451 12.9512 4.75504 10.5576C4.11418 8.12076 4.55263 6.44118 5.47441 5.53988L5.47441 5.53988C6.40469 4.63027 8.14561 4.19842 10.6546 4.82927L10.6546 4.82927C13.1144 5.44774 15.9469 7.02739 18.4754 9.49966C21.0045 11.9725 22.6151 14.7376 23.2446 17.1312C23.8855 19.5681 23.447 21.2476 22.5252 22.1489C21.595 23.0585 19.8541 23.4904 17.345 22.8595C14.8852 22.2411 12.0527 20.6614 9.52422 18.1892Z" stroke="#4285F4" stroke-width="2"/>
</svg>
